<svg width="1440" height="713" viewBox="0 0 1440 713" fill="none" xmlns="http://www.w3.org/2000/svg">
<g clip-path="url(#clip0_3765_2717)">
<path d="M1440 0H0V713H1440V0Z" fill="#151515"/>
<path d="M0 334.423L34.4 311.532C68.8 288.366 155.02 283.126 223.5 298.57C292.14 314.29 632.86 390.105 701.5 397C769.98 403.895 805.52 348.391 874 325.5C942.64 302.333 833.36 408.032 902 397C970.48 385.968 1047.52 478.292 1116 472.5C1184.64 466.433 1188.36 313.187 1257 334.423C1325.48 355.383 1371.2 283.953 1405.6 291.124L1440 298.57V709.5H1405.6C1371.2 709.5 1302.4 709.5 1233.92 709.5C1165.28 709.5 1097.12 709.5 1028.48 709.5C960 709.5 891.2 709.5 822.72 709.5C754.08 709.5 685.92 709.5 617.28 709.5C548.8 709.5 480 709.5 411.52 709.5C342.88 709.5 274.72 709.5 206.08 709.5C137.6 709.5 68.8 709.5 34.4 709.5H0V334.423Z" fill="#E9E9E9"/>
</g>
<defs>
<clipPath id="clip0_3765_2717">
<rect width="1440" height="713" fill="white"/>
</clipPath>
</defs>
</svg>
