<svg width="80" height="103" viewBox="0 0 80 103" fill="none" xmlns="http://www.w3.org/2000/svg">
<mask id="mask0_415_1094" style="mask-type:luminance" maskUnits="userSpaceOnUse" x="29" y="18" width="51" height="85">
<path d="M29.9092 18.1426H79.1682V102.757H29.9092V18.1426Z" fill="white"/>
</mask>
<g mask="url(#mask0_415_1094)">
<path d="M79.2237 102.295C76.9441 97.9714 74.6626 93.6478 72.3791 89.3242L68.9529 82.8528L65.5129 76.3813L58.6232 63.4455L52.1575 51.3277L60.4806 36.7793L62.6718 32.9558C63.4061 31.6821 64.1326 30.406 64.8709 29.137L69.2984 21.5227L71.0891 18.4448L47.4806 18.2578L46.9838 19.3142C46.2554 20.866 45.5446 22.4249 44.828 23.9814L44.29 25.1499L43.7618 26.3255L42.6956 28.6672L40.5928 33.3695L39.5188 35.793C39.1104 35.0545 38.702 34.316 38.2916 33.5798L37.037 31.3455L35.7686 29.1183L34.5022 26.8957L33.2161 24.6848C32.3561 23.2101 31.4824 21.7448 30.5969 20.2911C30.5713 20.2397 30.534 20.2069 30.485 20.1906C30.4359 20.1766 30.3887 20.1836 30.3456 20.214C30.3024 20.2443 30.2729 20.2887 30.2611 20.3472C30.2474 20.4056 30.2533 20.4617 30.2788 20.5131C30.9228 22.1351 31.5845 23.7476 32.2638 25.3509L33.2789 27.7534L34.3078 30.1466L35.3465 32.5351L36.393 34.9143C37.0979 36.4965 37.8027 38.081 38.5174 39.6586L39.5482 41.9326L40.7754 39.6399C41.5784 38.1395 42.3599 36.6344 43.1531 35.1293L45.5073 30.6023L46.6756 28.3307L47.2567 27.1972L47.836 26.066C48.4211 24.9139 49.0062 23.764 49.5874 22.6095C50.0488 22.6095 64.162 22.5464 64.7236 22.5324L62.2987 27.1177C61.6096 28.4242 60.9066 29.7189 60.2116 31.023L58.1166 34.9236L49.7287 50.5167L49.2928 51.3277L49.7287 52.0826L57.0013 64.7169L64.2897 77.3395L67.9338 83.6474L71.5898 89.9482C74.0264 94.1549 76.4709 98.3524 78.9233 102.54C78.9508 102.587 78.99 102.618 79.0371 102.629C79.0862 102.641 79.1314 102.629 79.1726 102.597C79.2139 102.564 79.2394 102.519 79.2492 102.463C79.259 102.405 79.2512 102.351 79.2237 102.302V102.295Z" fill="black"/>
</g>
<mask id="mask1_415_1094" style="mask-type:luminance" maskUnits="userSpaceOnUse" x="0" y="0" width="50" height="85">
<path d="M0 0H49.5103V84.5537H0V0Z" fill="white"/>
</mask>
<g mask="url(#mask1_415_1094)">
<path d="M47.0178 77.25L46.0026 74.8452L44.9738 72.452L43.9351 70.0658L42.8886 67.6867C42.1837 66.1021 41.4808 64.5176 40.7642 62.9424L39.7334 60.666L38.5062 62.961C37.7031 64.4591 36.9217 65.9666 36.1285 67.4716L33.7723 71.9986L32.608 74.2702L32.0229 75.4037L31.4456 76.5349C30.8625 77.6871 30.2813 78.8393 29.7021 79.9914C29.2407 79.9914 15.1274 80.0569 14.5639 80.0709L16.9829 75.4855C17.674 74.1791 18.3769 72.882 19.072 71.5803L21.167 67.6773L29.5548 52.0842L29.9888 51.2732L29.5548 50.5184L22.2822 37.9097L14.9939 25.3128L11.3497 19.019L7.68985 12.7299C5.25518 8.53714 2.81264 4.34906 0.358333 0.170339C0.330845 0.123596 0.293539 0.0932143 0.246417 0.081529C0.199294 0.0698437 0.156098 0.0791921 0.114865 0.109574C0.0736331 0.142293 0.0461449 0.186698 0.034364 0.245126C0.0245468 0.301216 0.0324001 0.357306 0.0579254 0.406385C2.33945 4.723 4.62098 9.03961 6.90251 13.3516L10.3287 19.8183L13.7687 26.2757L20.6584 39.1858L27.1241 51.2756L18.8049 65.8217L16.6137 69.6475C15.8814 70.9189 15.1549 72.1972 14.4147 73.4663L9.98905 81.0782L8.20035 84.1562L31.8069 84.3455L32.3056 83.2774C33.0341 81.7279 33.7468 80.1691 34.4615 78.6126L34.9995 77.444L35.5316 76.2731L36.5958 73.929L38.6888 69.2338L39.7628 66.8102L40.99 69.0211L42.2446 71.2554L43.513 73.485L44.7794 75.7052L46.0655 77.9184C46.9255 79.3908 47.7972 80.8562 48.6847 82.3098C48.7122 82.3543 48.7495 82.38 48.7947 82.3916C48.8398 82.4033 48.883 82.394 48.9223 82.3659C48.9635 82.3379 48.9891 82.2982 49.0028 82.2444C49.0165 82.1907 49.0146 82.1392 48.9949 82.0902C48.3568 80.4729 47.6971 78.858 47.0178 77.25Z" fill="black"/>
</g>
</svg>
