<svg width="32" height="32" viewBox="0 0 32 32" fill="none" xmlns="http://www.w3.org/2000/svg">
<g clip-path="url(#clip0_3782_1351)">
<path d="M16.0004 2.66667C17.769 2.67247 19.519 3.02899 21.149 3.71558C22.779 4.40218 24.2566 5.40523 25.4963 6.66667H21.3337C20.9801 6.66667 20.6409 6.80715 20.3909 7.05719C20.1408 7.30724 20.0003 7.64638 20.0003 8C20.0003 8.35362 20.1408 8.69276 20.3909 8.94281C20.6409 9.19286 20.9801 9.33334 21.3337 9.33334H26.8577C27.5142 9.33298 28.1438 9.07201 28.6081 8.60774C29.0724 8.14348 29.3333 7.5139 29.3337 6.85734V1.33334C29.3337 0.979713 29.1932 0.640575 28.9432 0.390526C28.6931 0.140478 28.354 1.74142e-06 28.0003 1.74142e-06V1.74142e-06C27.6467 1.74142e-06 27.3076 0.140478 27.0575 0.390526C26.8075 0.640575 26.667 0.979713 26.667 1.33334V4.104C24.4632 2.11927 21.7505 0.787215 18.8325 0.257C15.9145 -0.273214 12.9065 0.019351 10.1454 1.10193C7.38428 2.18451 4.97904 4.01436 3.19903 6.38657C1.41903 8.75877 0.33454 11.5797 0.067018 14.5333C0.0497959 14.719 0.0714391 14.9062 0.130569 15.0831C0.189698 15.2599 0.285017 15.4225 0.410453 15.5605C0.535889 15.6985 0.688691 15.8088 0.859122 15.8845C1.02955 15.9602 1.21388 15.9995 1.40035 16V16C1.72647 16.0042 2.0424 15.8865 2.2863 15.6699C2.53019 15.4534 2.6845 15.1536 2.71902 14.8293C3.01584 11.5103 4.54298 8.42227 7.00046 6.17179C9.45793 3.9213 12.6681 2.67106 16.0004 2.66667Z" fill="#374957"/>
<path d="M30.6014 16.0004C30.2753 15.9962 29.9594 16.1139 29.7155 16.3304C29.4716 16.5469 29.3173 16.8467 29.2827 17.171C29.0623 19.7087 28.1186 22.1298 26.5636 24.1473C25.0086 26.1648 22.9075 27.6938 20.5096 28.5531C18.1117 29.4124 15.5177 29.5658 13.0352 28.9952C10.5528 28.4245 8.28607 27.1538 6.50408 25.3337H10.6667C11.0204 25.3337 11.3595 25.1932 11.6096 24.9432C11.8596 24.6931 12.0001 24.354 12.0001 24.0004C12.0001 23.6467 11.8596 23.3076 11.6096 23.0576C11.3595 22.8075 11.0204 22.667 10.6667 22.667H5.14275C4.81755 22.6669 4.4955 22.7308 4.19502 22.8552C3.89454 22.9795 3.62151 23.1619 3.39156 23.3918C3.16161 23.6218 2.97923 23.8948 2.85487 24.1953C2.7305 24.4958 2.66657 24.8178 2.66675 25.143V30.6671C2.66675 31.0207 2.80722 31.3598 3.05727 31.6099C3.30732 31.8599 3.64646 32.0004 4.00008 32.0004C4.3537 32.0004 4.69284 31.8599 4.94289 31.6099C5.19294 31.3598 5.33342 31.0207 5.33342 30.6671V27.8964C7.53719 29.8811 10.25 31.2132 13.168 31.7434C16.0859 32.2736 19.0939 31.981 21.855 30.8985C24.6162 29.8159 27.0214 27.986 28.8014 25.6138C30.5814 23.2416 31.6659 20.4207 31.9334 17.467C31.9506 17.2813 31.929 17.0941 31.8699 16.9173C31.8107 16.7404 31.7154 16.5778 31.59 16.4398C31.4645 16.3019 31.3117 16.1915 31.1413 16.1159C30.9709 16.0402 30.7866 16.0008 30.6001 16.0004H30.6014Z" fill="#374957"/>
</g>
<path d="M15.2638 22.2727V9.54545H15.7461V22.2727H15.2638ZM18.1126 13.3636C18.0595 12.7306 17.801 12.2185 17.337 11.8274C16.8763 11.4363 16.2797 11.2408 15.5472 11.2408C15.0534 11.2408 14.6142 11.3319 14.2298 11.5142C13.8453 11.6965 13.5437 11.9451 13.3249 12.2599C13.1062 12.5748 12.9968 12.9361 12.9968 13.3438C12.9968 13.6056 13.0465 13.8426 13.146 14.0547C13.2487 14.2635 13.3929 14.4508 13.5785 14.6165C13.7641 14.7789 13.9845 14.9214 14.2397 15.044C14.4949 15.1667 14.7766 15.2744 15.0849 15.3672L16.1985 15.6953C16.5797 15.8113 16.931 15.9455 17.2525 16.098C17.5773 16.2505 17.859 16.4328 18.0977 16.6449C18.3396 16.8537 18.5269 17.099 18.6594 17.3807C18.7953 17.6624 18.8633 17.9872 18.8633 18.3551C18.8633 18.892 18.7241 19.3726 18.4457 19.7969C18.1706 20.2211 17.7778 20.5559 17.2674 20.8011C16.7603 21.0431 16.1621 21.1641 15.4727 21.1641C14.8164 21.1641 14.2447 21.053 13.7575 20.831C13.2736 20.6089 12.8907 20.3007 12.609 19.9062C12.3273 19.5085 12.1682 19.0511 12.1317 18.5341H12.7681C12.8013 18.955 12.9355 19.3196 13.1708 19.6278C13.4094 19.9328 13.726 20.1681 14.1204 20.3338C14.5148 20.4995 14.9656 20.5824 15.4727 20.5824C16.0195 20.5824 16.5018 20.4896 16.9194 20.304C17.337 20.1151 17.6635 19.8532 17.8988 19.5185C18.1341 19.1837 18.2518 18.7943 18.2518 18.3501C18.2518 17.9922 18.1673 17.6856 17.9982 17.4304C17.8292 17.1752 17.579 16.9548 17.2475 16.7692C16.9194 16.5836 16.5117 16.4179 16.0245 16.272L14.8363 15.9141C14.0408 15.6721 13.4326 15.3423 13.0117 14.9247C12.5941 14.5071 12.3853 13.9867 12.3853 13.3636C12.3853 12.84 12.5245 12.3759 12.8029 11.9716C13.0813 11.5639 13.4592 11.2441 13.9364 11.0121C14.417 10.7801 14.9589 10.6641 15.5621 10.6641C16.1687 10.6641 16.704 10.7817 17.168 11.017C17.632 11.2491 17.9999 11.5689 18.2717 11.9766C18.5434 12.3809 18.6942 12.8433 18.7241 13.3636H18.1126Z" fill="#1F2930"/>
<defs>
<clipPath id="clip0_3782_1351">
<rect width="32" height="32" fill="white"/>
</clipPath>
</defs>
</svg>
