<svg width="32" height="32" viewBox="0 0 32 32" fill="none" xmlns="http://www.w3.org/2000/svg">
<g clip-path="url(#clip0_3782_1343)">
<path d="M30.6666 14.6675H27.9999V12.0008C27.9999 11.6472 27.8594 11.3081 27.6094 11.058C27.3593 10.808 27.0202 10.6675 26.6666 10.6675C26.313 10.6675 25.9738 10.808 25.7238 11.058C25.4737 11.3081 25.3332 11.6472 25.3332 12.0008V14.6675H22.6666C22.313 14.6675 21.9738 14.8079 21.7238 15.058C21.4737 15.308 21.3333 15.6472 21.3333 16.0008C21.3333 16.3544 21.4737 16.6936 21.7238 16.9436C21.9738 17.1937 22.313 17.3341 22.6666 17.3341H25.3332V20.0008C25.3332 20.3544 25.4737 20.6936 25.7238 20.9436C25.9738 21.1937 26.313 21.3341 26.6666 21.3341C27.0202 21.3341 27.3593 21.1937 27.6094 20.9436C27.8594 20.6936 27.9999 20.3544 27.9999 20.0008V17.3341H30.6666C31.0202 17.3341 31.3593 17.1937 31.6094 16.9436C31.8594 16.6936 31.9999 16.3544 31.9999 16.0008C31.9999 15.6472 31.8594 15.308 31.6094 15.058C31.3593 14.8079 31.0202 14.6675 30.6666 14.6675Z" fill="#3E5879"/>
<path d="M12 15.9999C13.5823 15.9999 15.129 15.5307 16.4446 14.6516C17.7602 13.7726 18.7855 12.5232 19.391 11.0613C19.9965 9.59954 20.155 7.99101 19.8463 6.43916C19.5376 4.88731 18.7757 3.46185 17.6569 2.34303C16.538 1.22421 15.1126 0.462281 13.5607 0.153599C12.0089 -0.155082 10.4003 0.00334422 8.93853 0.608845C7.47672 1.21435 6.22729 2.23973 5.34824 3.55532C4.46919 4.87091 4 6.41763 4 7.99988C4.00212 10.121 4.84565 12.1546 6.34549 13.6544C7.84532 15.1542 9.87892 15.9978 12 15.9999ZM12 2.66655C13.0548 2.66655 14.086 2.97934 14.963 3.56538C15.8401 4.15141 16.5237 4.98436 16.9274 5.9589C17.331 6.93344 17.4366 8.0058 17.2309 9.04036C17.0251 10.0749 16.5171 11.0252 15.7712 11.7711C15.0254 12.517 14.075 13.0249 13.0405 13.2307C12.0059 13.4365 10.9336 13.3309 9.95902 12.9272C8.98448 12.5236 8.15153 11.84 7.5655 10.9629C6.97946 10.0859 6.66667 9.05472 6.66667 7.99988C6.66667 6.58539 7.22857 5.22884 8.22876 4.22865C9.22896 3.22845 10.5855 2.66655 12 2.66655V2.66655Z" fill="#3E5879"/>
<path d="M12 18.6675C8.81849 18.671 5.76829 19.9364 3.51862 22.1861C1.26894 24.4358 0.00352914 27.486 0 30.6675C0 31.0211 0.140476 31.3602 0.390524 31.6103C0.640573 31.8603 0.979711 32.0008 1.33333 32.0008C1.68696 32.0008 2.02609 31.8603 2.27614 31.6103C2.52619 31.3602 2.66667 31.0211 2.66667 30.6675C2.66667 28.1921 3.65 25.8182 5.40034 24.0678C7.15068 22.3175 9.52465 21.3341 12 21.3341C14.4754 21.3341 16.8493 22.3175 18.5997 24.0678C20.35 25.8182 21.3333 28.1921 21.3333 30.6675C21.3333 31.0211 21.4738 31.3602 21.7239 31.6103C21.9739 31.8603 22.313 32.0008 22.6667 32.0008C23.0203 32.0008 23.3594 31.8603 23.6095 31.6103C23.8595 31.3602 24 31.0211 24 30.6675C23.9965 27.486 22.7311 24.4358 20.4814 22.1861C18.2317 19.9364 15.1815 18.671 12 18.6675V18.6675Z" fill="#3E5879"/>
</g>
<defs>
<clipPath id="clip0_3782_1343">
<rect width="32" height="32" fill="white"/>
</clipPath>
</defs>
</svg>
