<svg width="32" height="32" viewBox="0 0 32 32" fill="none" xmlns="http://www.w3.org/2000/svg">
<g clip-path="url(#clip0_3782_1380)">
<path d="M25.3333 26.6671H6.66667C4.89921 26.665 3.20474 25.9619 1.95496 24.7121C0.705176 23.4623 0.00211714 21.7679 0 20.0004L0 12.0004C0.00211714 10.2329 0.705176 8.53848 1.95496 7.2887C3.20474 6.03892 4.89921 5.33586 6.66667 5.33374H25.3333C27.1008 5.33586 28.7953 6.03892 30.045 7.2887C31.2948 8.53848 31.9979 10.2329 32 12.0004V20.0004C31.9979 21.7679 31.2948 23.4623 30.045 24.7121C28.7953 25.9619 27.1008 26.665 25.3333 26.6671ZM6.66667 8.00041C5.6058 8.00041 4.58839 8.42183 3.83824 9.17198C3.08809 9.92213 2.66667 10.9395 2.66667 12.0004V20.0004C2.66667 21.0613 3.08809 22.0787 3.83824 22.8288C4.58839 23.579 5.6058 24.0004 6.66667 24.0004H25.3333C26.3942 24.0004 27.4116 23.579 28.1618 22.8288C28.9119 22.0787 29.3333 21.0613 29.3333 20.0004V12.0004C29.3333 10.9395 28.9119 9.92213 28.1618 9.17198C27.4116 8.42183 26.3942 8.00041 25.3333 8.00041H6.66667ZM16 21.3337C14.9452 21.3337 13.914 21.0209 13.037 20.4349C12.1599 19.8489 11.4763 19.0159 11.0726 18.0414C10.669 17.0668 10.5634 15.9945 10.7691 14.9599C10.9749 13.9254 11.4829 12.9751 12.2288 12.2292C12.9746 11.4833 13.925 10.9753 14.9595 10.7696C15.9941 10.5638 17.0664 10.6694 18.041 11.073C19.0155 11.4767 19.8485 12.1603 20.4345 13.0374C21.0205 13.9144 21.3333 14.9456 21.3333 16.0004C21.3333 17.4149 20.7714 18.7714 19.7712 19.7716C18.771 20.7718 17.4145 21.3337 16 21.3337ZM16 13.3337C15.4726 13.3337 14.957 13.4901 14.5185 13.7832C14.0799 14.0762 13.7382 14.4926 13.5363 14.9799C13.3345 15.4672 13.2817 16.0034 13.3846 16.5206C13.4875 17.0379 13.7414 17.5131 14.1144 17.886C14.4873 18.259 14.9625 18.5129 15.4798 18.6158C15.997 18.7187 16.5332 18.6659 17.0205 18.4641C17.5078 18.2623 17.9242 17.9205 18.2173 17.4819C18.5103 17.0434 18.6667 16.5278 18.6667 16.0004C18.6667 15.2932 18.3857 14.6149 17.8856 14.1148C17.3855 13.6147 16.7072 13.3337 16 13.3337ZM6.66667 10.6671C6.40296 10.6671 6.14517 10.7453 5.92591 10.8918C5.70664 11.0383 5.53574 11.2465 5.43483 11.4902C5.33391 11.7338 5.30751 12.0019 5.35895 12.2605C5.4104 12.5192 5.53739 12.7567 5.72386 12.9432C5.91033 13.1297 6.14791 13.2567 6.40655 13.3081C6.66519 13.3596 6.93328 13.3332 7.17691 13.2322C7.42055 13.1313 7.62878 12.9604 7.77529 12.7412C7.9218 12.5219 8 12.2641 8 12.0004C8 11.6468 7.85952 11.3076 7.60948 11.0576C7.35943 10.8075 7.02029 10.6671 6.66667 10.6671ZM24 12.0004C24 12.2641 24.0782 12.5219 24.2247 12.7412C24.3712 12.9604 24.5795 13.1313 24.8231 13.2322C25.0667 13.3332 25.3348 13.3596 25.5935 13.3081C25.8521 13.2567 26.0897 13.1297 26.2761 12.9432C26.4626 12.7567 26.5896 12.5192 26.641 12.2605C26.6925 12.0019 26.6661 11.7338 26.5652 11.4902C26.4643 11.2465 26.2934 11.0383 26.0741 10.8918C25.8548 10.7453 25.597 10.6671 25.3333 10.6671C24.9797 10.6671 24.6406 10.8075 24.3905 11.0576C24.1405 11.3076 24 11.6468 24 12.0004ZM6.66667 18.6671C6.40296 18.6671 6.14517 18.7453 5.92591 18.8918C5.70664 19.0383 5.53574 19.2465 5.43483 19.4902C5.33391 19.7338 5.30751 20.0019 5.35895 20.2605C5.4104 20.5192 5.53739 20.7567 5.72386 20.9432C5.91033 21.1297 6.14791 21.2567 6.40655 21.3081C6.66519 21.3596 6.93328 21.3332 7.17691 21.2322C7.42055 21.1313 7.62878 20.9604 7.77529 20.7412C7.9218 20.5219 8 20.2641 8 20.0004C8 19.6468 7.85952 19.3076 7.60948 19.0576C7.35943 18.8076 7.02029 18.6671 6.66667 18.6671ZM24 20.0004C24 20.2641 24.0782 20.5219 24.2247 20.7412C24.3712 20.9604 24.5795 21.1313 24.8231 21.2322C25.0667 21.3332 25.3348 21.3596 25.5935 21.3081C25.8521 21.2567 26.0897 21.1297 26.2761 20.9432C26.4626 20.7567 26.5896 20.5192 26.641 20.2605C26.6925 20.0019 26.6661 19.7338 26.5652 19.4902C26.4643 19.2465 26.2934 19.0383 26.0741 18.8918C25.8548 18.7453 25.597 18.6671 25.3333 18.6671C24.9797 18.6671 24.6406 18.8076 24.3905 19.0576C24.1405 19.3076 24 19.6468 24 20.0004Z" fill="#3E5879"/>
</g>
<defs>
<clipPath id="clip0_3782_1380">
<rect width="32" height="32" fill="white"/>
</clipPath>
</defs>
</svg>
